<?xml version="1.0" encoding="UTF-8" standalone="no"?>
<!DOCTYPE svg PUBLIC "-//W3C//DTD SVG 1.1//EN" "http://www.w3.org/Graphics/SVG/1.1/DTD/svg11.dtd">
<svg width="100%" height="100%" viewBox="0 0 24 24" version="1.1" xmlns="http://www.w3.org/2000/svg" xmlns:xlink="http://www.w3.org/1999/xlink" xml:space="preserve" xmlns:serif="http://www.serif.com/" style="fill-rule:evenodd;clip-rule:evenodd;stroke-linejoin:round;stroke-miterlimit:2;">
    <path d="M2.009,12.002C2.009,6.485 6.489,2.005 12.007,2.005C17.525,2.005 22.005,6.485 22.005,12.002C22.005,17.52 17.525,22 12.007,22C6.489,22 2.009,17.52 2.009,12.002ZM10.22,7.159C10.079,7.051 9.92,7.002 9.764,7.002C9.375,7.002 9.009,7.308 9.009,7.751L9.009,16.252C9.009,16.697 9.376,17.002 9.764,17.002C9.921,17.002 10.08,16.952 10.221,16.843C11.775,15.64 14.42,13.591 15.719,12.585C15.903,12.443 16.009,12.225 16.009,11.993C16.009,11.763 15.902,11.544 15.718,11.402L10.22,7.159Z" style="fill:rgb(223,18,172);fill-rule:nonzero;"/>
</svg>
