<?xml version="1.0"?>
<svg width="640" height="480" xmlns="http://www.w3.org/2000/svg" xmlns:svg="http://www.w3.org/2000/svg">
 <!-- Created with SVG-edit - https://github.com/SVG-Edit/svgedit-->
 <g class="layer">
  <title>Layer 1</title>
  <ellipse cx="311" cy="253" fill="#ffd4aa" id="svg_1" rx="189" ry="135" stroke="#000000" stroke-width="0" transform="matrix(1 0 0 1 0 0)"/>
  <ellipse cx="206" cy="277" fill="#aad4ff" id="svg_2" rx="40" ry="40" stroke="#000000" stroke-width="0"/>
  <ellipse cx="214" cy="269" fill="#ffffff" id="svg_3" rx="28" ry="28" stroke="#000000" stroke-width="0"/>
  <ellipse cx="415.5" cy="278.5" fill="#aad4ff" id="svg_5" rx="40" ry="40" stroke="#000000" stroke-width="0"/>
  <ellipse cx="405.5" cy="273.5" fill="#ffffff" id="svg_4" rx="28" ry="28" stroke="#000000" stroke-width="0"/>
  <ellipse cx="295.5" cy="342" fill="#ffffff" id="svg_6" rx="28.5" ry="28" stroke="#000000" stroke-width="0"/>
  <path d="m87.49,192.11l70.5,-123.38l70.5,123.38z" fill="#ffd4aa" id="svg_9" stroke="#000000" stroke-width="0" transform="rotate(-31.5024 157.995 130.421)"/>
  <path d="m415.24,199.94l70.5,-123.38l70.5,123.38z" fill="#ffd4aa" id="svg_10" stroke="#000000" stroke-width="0" transform="rotate(42.8572 485.74 138.256)"/>
  <ellipse cx="330.5" cy="342.5" fill="#ffffff" id="svg_11" rx="28.5" ry="28" stroke="#000000" stroke-width="0"/>
  <ellipse cx="310.5" cy="319.5" fill="#ffaaaa" id="svg_12" rx="23" ry="14.55" stroke="#000000" stroke-width="0"/>
  <line fill="none" id="svg_13" stroke="#a8672b" stroke-width="4" x1="294" x2="311" y1="363" y2="354"/>
  <line fill="none" id="svg_14" stroke="#a8672b" stroke-width="4" transform="rotate(59.6764 319.5 358.5)" x1="311" x2="328" y1="363" y2="354"/>
  <line fill="none" id="svg_15" stroke="#a8672b" stroke-width="4" x1="310" x2="310" y1="353" y2="334.97"/>
  <path d="m120.17,193.43l48.33,-84.58l48.33,84.58z" fill="#ffaaaa" id="svg_16" stroke="#000000" stroke-width="0" transform="rotate(-31.5024 168.505 151.135)"/>
  <path d="m416.84,198.41l48.33,-84.58l48.33,84.58z" fill="#ffaaaa" id="svg_17" stroke="#000000" stroke-width="0" transform="rotate(43.1677 465.17 156.115)"/>
  <line fill="none" id="svg_19" stroke="#89715f" stroke-linecap="round" stroke-linejoin="round" stroke-width="8" transform="rotate(28.9592 106.5 270.502) matrix(0.35639 -0.563958 0.563958 0.35639 -74.4738 227.557)" x1="45.5" x2="135.5" y1="225.21" y2="302.21"/>
  <line fill="none" id="svg_20" stroke="#89715f" stroke-linecap="round" stroke-linejoin="round" stroke-width="8" transform="rotate(10.4255 101.5 296.502) matrix(0.35639 -0.563958 0.563958 0.35639 -74.4738 227.557)" x1="8.55" x2="98.55" y1="239.69" y2="316.69"/>
  <line fill="none" id="svg_21" points="null" stroke="#89715f" stroke-linecap="round" stroke-linejoin="round" stroke-width="8" transform="rotate(10.7127 521.5 271.502) matrix(0.35639 -0.563958 0.563958 0.35639 -74.4738 227.557)" x1="376.55" x2="466.55" y1="751.87" y2="828.87"/>
  <line fill="none" id="svg_22" stroke="#89715f" stroke-linecap="round" stroke-linejoin="round" stroke-width="8" transform="rotate(26.3497 523.5 294.502) matrix(0.35639 -0.563958 0.563958 0.35639 -74.4738 227.557)" x1="349.01" x2="439.01" y1="772.83" y2="849.83"/>
  <line fill="none" id="svg_23" stroke="#89715f" stroke-linecap="round" stroke-linejoin="round" stroke-width="8" transform="rotate(46.5261 507.5 322.502) matrix(0.35639 -0.563958 0.563958 0.35639 -74.4738 227.557)" x1="300.72" x2="390.72" y1="774.97" y2="851.97"/>
  <path d="m272.86,343.92l15.61,-27.92l15.61,27.92z" fill="#ffffff" id="svg_24" stroke="#000000" stroke-width="0" transform="rotate(-24.0196 288.472 329.963)"/>
  <path d="m315.54,341.71l15.61,-27.92l15.61,27.92z" fill="#ffffff" id="svg_25" stroke="#000000" stroke-width="0" transform="rotate(25.0609 326.152 326.753)"/>
  <line fill="none" id="svg_26" stroke="#89715f" stroke-linecap="round" stroke-linejoin="round" stroke-width="8" transform="rotate(-15.2604 119.505 327.497) matrix(0.35639 -0.563958 0.563958 0.35639 -74.4738 227.557)" x1="-16.31" x2="73.69" y1="287.33" y2="364.33"/>
 </g>
</svg>