<?xml version="1.0" encoding="UTF-8" standalone="no"?>
<!DOCTYPE svg PUBLIC "-//W3C//DTD SVG 1.1//EN" "http://www.w3.org/Graphics/SVG/1.1/DTD/svg11.dtd">
<svg width="100%" height="100%" viewBox="0 0 24 24" version="1.1" xmlns="http://www.w3.org/2000/svg" xmlns:xlink="http://www.w3.org/1999/xlink" xml:space="preserve" xmlns:serif="http://www.serif.com/" style="fill-rule:evenodd;clip-rule:evenodd;stroke-linejoin:round;stroke-miterlimit:2;">
    <path d="M22,12.002C22,6.485 17.52,2.005 12.002,2.005C6.485,2.005 2.005,6.485 2.005,12.002C2.005,17.52 6.485,22 12.002,22C17.52,22 22,17.52 22,12.002ZM13.789,7.159C13.93,7.051 14.089,7.002 14.245,7.002C14.634,7.002 15,7.308 15,7.751L15,16.252C15,16.697 14.633,17.002 14.245,17.002C14.088,17.002 13.929,16.952 13.788,16.843C12.234,15.64 9.589,13.591 8.29,12.585C8.106,12.443 8,12.225 8,11.993C8,11.763 8.107,11.544 8.291,11.402L13.789,7.159Z" style="fill:rgb(223,18,172);fill-rule:nonzero;"/>
</svg>
