<?xml version="1.0" encoding="UTF-8" standalone="no"?>
<!DOCTYPE svg PUBLIC "-//W3C//DTD SVG 1.1//EN" "http://www.w3.org/Graphics/SVG/1.1/DTD/svg11.dtd">
<svg width="100%" height="100%" viewBox="0 0 24 24" version="1.1" xmlns="http://www.w3.org/2000/svg" xmlns:xlink="http://www.w3.org/1999/xlink" xml:space="preserve" xmlns:serif="http://www.serif.com/" style="fill-rule:evenodd;clip-rule:evenodd;stroke-linejoin:round;stroke-miterlimit:2;">
    <path d="M12.002,2.005C17.52,2.005 22,6.485 22,12.002C22,17.52 17.52,22 12.002,22C6.485,22 2.005,17.52 2.005,12.002C2.005,6.485 6.485,2.005 12.002,2.005ZM17,15.25C17,14.836 16.664,14.5 16.25,14.5L7.75,14.5C7.336,14.5 7,14.836 7,15.25C7,15.664 7.336,16 7.75,16L16.25,16C16.664,16 17,15.664 17,15.25ZM17,12.002C17,11.588 16.664,11.252 16.25,11.252L7.75,11.252C7.336,11.252 7,11.588 7,12.002C7,12.416 7.336,12.752 7.75,12.752L16.25,12.752C16.664,12.752 17,12.416 17,12.002ZM17,8.75C17,8.336 16.664,8 16.25,8L7.75,8C7.336,8 7,8.336 7,8.75C7,9.164 7.336,9.5 7.75,9.5L16.25,9.5C16.664,9.5 17,9.164 17,8.75Z" style="fill:rgb(230,234,250);fill-rule:nonzero;"/>
</svg>
